<?xml version="1.0" encoding="utf-8"?>
<!-- Generator: Adobe Illustrator 21.0.2, SVG Export Plug-In . SVG Version: 6.00 Build 0)  -->
<svg version="1.1" id="Layer_1" xmlns="http://www.w3.org/2000/svg" xmlns:xlink="http://www.w3.org/1999/xlink" x="0px" y="0px"
	 viewBox="0 0 30.1 22.3" style="enable-background:new 0 0 30.1 22.3;" xml:space="preserve">
<style type="text/css">
	.st0{fill:none;stroke:#7AB8F1;stroke-linejoin:round;}
	.st1{fill:none;stroke:#7AB8F1;stroke-width:1.2;stroke-linecap:round;stroke-linejoin:round;stroke-dasharray:2.4,2.8;}
	.st2{fill:#7AB8F1;}
	.st3{fill:none;stroke:#7AB8F1;}
</style>
<g>
	<g transform="translate(-243.000000, -304.000000)">
		<g transform="translate(243.000000, 305.000000)">
			<polygon class="st0" points="1.3,20.8 6.3,20.8 6.3,15.8 1.3,15.8 			"/>
			<polygon class="st0" points="12.5,4.5 17.5,4.5 17.5,-0.5 12.5,-0.5 			"/>
			<polygon class="st0" points="23.8,20.8 28.8,20.8 28.8,15.8 23.8,15.8 			"/>
			<path class="st1" d="M3.8,15.8c0-6.2,5-11.2,11.2-11.2"/>
			<path class="st1" d="M26.3,15.8c0-6.2-5-11.2-11.3-11.2"/>
			<path class="st2" d="M5,2c0,1.4-1.1,2.5-2.5,2.5S0,3.4,0,2s1.1-2.5,2.5-2.5S5,0.6,5,2"/>
			<path class="st3" d="M3.8,2h8.8"/>
			<path class="st2" d="M25,2c0-1.4,1.1-2.5,2.5-2.5C28.9-0.5,30,0.6,30,2s-1.1,2.5-2.5,2.5C26.1,4.5,25,3.4,25,2"/>
			<path class="st3" d="M26.3,2h-8.8"/>
		</g>
	</g>
</g>
</svg>
