<svg xmlns="http://www.w3.org/2000/svg" width="28" height="32" viewBox="0 0 28 32"><g><g><path fill="#ff78a1" d="M22.934 20.785h.041c.374 0 .677.301.677.673a.674.674 0 0 1-.677.674H21.96c-.375.707-.81 2.073.323 3.487 1.815 2.262.81 4.975.026 6.093a.676.676 0 0 1-1.108-.771c.067-.098 1.657-2.447.026-4.482-1.238-1.544-1.168-3.15-.745-4.327h-.886a.674.674 0 0 1-.676-.674c0-.372.303-.673.676-.673h.042c-2.16-.573-3.9-2.238-4.653-4.4a8.83 8.83 0 0 1-3.804 2.123h.626a.674.674 0 1 1 0 1.346h-2.16c.486 1.202.914 3.27-.545 5.423-1.71 2.523-.048 5.42.023 5.541a.672.672 0 0 1-.584 1.014.674.674 0 0 1-.581-.33c-.09-.152-2.171-3.742.021-6.977 1.365-2.015.568-3.954.18-4.67H6.171a.674.674 0 0 1-.676-.674c0-.372.303-.673.676-.673H6.8C2.901 17.481.003 13.793.003 9.4c0-5.184 4.032-9.402 8.986-9.402 4.46 0 8.203 3.481 8.867 7.98a6.446 6.446 0 0 1 3.43-.995c3.7 0 6.71 3.146 6.71 7.013 0 3.27-2.158 6.018-5.062 6.79zm-8.309-5.959A7.145 7.145 0 0 1 16.6 8.984l.006-.007c-.21-4.234-3.572-7.632-7.617-7.632-4.209 0-7.633 3.613-7.633 8.055s3.424 8.056 7.633 8.056c2.15 0 4.188-.955 5.636-2.63zm12.02-.83c0-3.125-2.405-5.667-5.36-5.667-1.4 0-2.665.584-3.621 1.517-.19.184-.358.387-.518.596-.07.09-.146.174-.21.27-.16.235-.292.487-.415.744-.041.086-.094.165-.13.254a5.86 5.86 0 0 0-.285.904c-.016.07-.045.133-.06.203-.078.385-.12.78-.12 1.179 0 .372.039.735.104 1.088l.012.076c.51 2.567 2.666 4.502 5.243 4.502 2.955 0 5.36-2.542 5.36-5.666z"/></g></g></svg>