<svg xmlns="http://www.w3.org/2000/svg" width="26" height="26" viewBox="0 0 26 26"><g><g><path fill="#8ae541" d="M22.205 3.764c5.06 5.146 5.06 13.38 0 18.44-5.06 5.061-13.38 5.061-18.441 0-5.06-5.06-5.06-13.38 0-18.44 5.146-5.06 13.38-5.06 18.44 0zM2.82 12.255c.943 0 .943 1.458 0 1.458H1.362c.172 2.917 1.459 5.575 3.431 7.548 1.887 1.973 4.546 3.174 7.462 3.345v-1.458c0-.857 1.458-.857 1.458 0v1.458c2.917-.171 5.575-1.372 7.548-3.345 1.973-1.973 3.174-4.631 3.345-7.548h-1.458c-.858 0-.858-1.458 0-1.458h1.458c-.171-2.916-1.372-5.575-3.345-7.462-1.972-1.972-4.631-3.259-7.548-3.43V2.82c0 .943-1.458.943-1.458 0V1.362a11.265 11.265 0 0 0-7.462 3.431 11.265 11.265 0 0 0-3.43 7.462zm9.434-5.659c0-.343.258-.686.686-.686.344 0 .687.343.687.686v6.002l6.005 4.891a.698.698 0 0 1 .172.943c-.258.343-.686.43-.944.172l-6.348-5.148-.258-.171z"/></g></g></svg>