<svg xmlns="http://www.w3.org/2000/svg" width="26" height="31" viewBox="0 0 26 31"><defs><clipPath id="mwaha"><path fill="#fff" d="M5.948 8s-2.127-.396 0-3.012 0-3.764 0-3.764"/></clipPath><clipPath id="mwahb"><path fill="#fff" d="M13.029 8s-2.127-.396 0-3.012 0-3.764 0-3.764"/></clipPath></defs><g><g><path fill="#7ab8f1" d="M5.38 29.167h9.861c.496 0 .897.41.897.916a.907.907 0 0 1-.897.917H5.38a.907.907 0 0 1-.896-.917c0-.506.401-.916.896-.916zM26 16.333C26 18.358 24.394 20 22.414 20h-2.295c-1.19 4.292-4.997 7.275-9.36 7.333h-.897c-4.779 0-9.862-3.859-9.862-11V9.917h7.172V9h1.794v.917H20.62v2.75h1.793c1.98 0 3.586 1.641 3.586 3.666zm-7.172-4.583H8.966v3.667h1.793v5.5h-5.38v-5.5h1.793V11.75H1.793v4.583c0 5.959 4.16 9.167 8.07 9.167h.896c3.909 0 8.069-3.208 8.069-9.167zm-11.656 5.5v1.833h1.794V17.25zm17.035-.917c0-1.012-.803-1.833-1.793-1.833H20.62v1.833a13.822 13.822 0 0 1-.135 1.834h1.928c.99 0 1.793-.821 1.793-1.834z"/></g><g><path fill="none" stroke="#7ab8f1" stroke-miterlimit="50" stroke-width="4" d="M5.948 8v0s-2.127-.396 0-3.012 0-3.764 0-3.764v0" clip-path="url(&quot;#mwaha&quot;)"/></g><g><path fill="none" stroke="#7ab8f1" stroke-miterlimit="50" stroke-width="4" d="M13.029 8v0s-2.127-.396 0-3.012 0-3.764 0-3.764v0" clip-path="url(&quot;#mwahb&quot;)"/></g></g></svg>