<svg xmlns="http://www.w3.org/2000/svg" width="24" height="22" viewBox="0 0 24 22"><g><g><path fill="#fc0" d="M24 8.739v13.263H.522V8.739zm-1.29 10.61v-7.958c-.742 0-1.319-.614-1.319-1.34H3.131a1.33 1.33 0 0 1-1.319 1.34v7.958c.742 0 1.318.615 1.318 1.34h18.234c0-.753.604-1.34 1.318-1.34zm-10.463-7.958c2.154 0 3.9 1.776 3.9 3.965 0 2.19-1.746 3.965-3.9 3.965-2.153 0-3.9-1.775-3.9-3.965s1.747-3.965 3.9-3.965zm-9.83-4.384H.411L0 5.107 22.407-.001l1.538 7.009h-1.318l-.934-4.189c-.686.168-1.345-.279-1.51-.977L2.773 5.806c.11.447-.054.894-.357 1.2zm13.537 0h-6.7a3.711 3.711 0 0 1 2.499-1.927c1.702-.391 3.405.447 4.201 1.927z"/></g></g></svg>