<svg xmlns="http://www.w3.org/2000/svg" width="35" height="34" viewBox="0 0 35 34"><g><g><path fill="#8ae541" d="M34.516 24.97v3.484c0 3.068-2.496 5.568-5.559 5.568h-3.781a.84.84 0 0 1-.832-.834.84.84 0 0 1 .832-.833h3.781a3.892 3.892 0 0 0 3.895-3.901v-3.485a.84.84 0 0 1 .832-.833.84.84 0 0 1 .832.833zm0-19.393v4.052a.84.84 0 0 1-.832.833.84.84 0 0 1-.832-.833V5.577a3.893 3.893 0 0 0-3.895-3.902h-3.781a.84.84 0 0 1-.832-.833.84.84 0 0 1 .832-.833h3.781c3.063 0 5.559 2.5 5.559 5.568zm-10.89 9.961V12.85c0-.568.453-1.06 1.058-1.06s1.06.454 1.06 1.06v2.727c-.039.568-.492 1.023-1.06 1.023a1.058 1.058 0 0 1-1.058-1.06zm.264 8.408c.34.341.34.872 0 1.175a8.634 8.634 0 0 1-6.2 2.613h-.303c-2.307 0-4.5-.909-6.202-2.613-.34-.341-.34-.872 0-1.175.34-.34.87-.34 1.173 0 1.36 1.364 3.138 2.122 5.029 2.122h.302c1.853 0 3.668-.758 5.03-2.122.34-.34.869-.34 1.171 0zm-9.264-3.143a.84.84 0 0 1 .832-.833h.19c.755 0 1.398-.607 1.398-1.402V12.85a.84.84 0 0 1 .832-.833.84.84 0 0 1 .832.833v5.757c0 1.667-1.361 3.03-3.063 3.03h-.189a.84.84 0 0 1-.832-.833zm-3.705-7.954v2.727c0 .568-.454 1.023-1.06 1.023a1.058 1.058 0 0 1-1.058-1.06v-2.69a1.058 1.058 0 1 1 2.118 0zM.56 9.629V5.577C.56 2.509 3.056.009 6.118.009H9.9a.84.84 0 0 1 .832.833.84.84 0 0 1-.832.833H6.118a3.892 3.892 0 0 0-3.894 3.902v4.052a.84.84 0 0 1-.832.833.84.84 0 0 1-.832-.833zm10.134 23.56c0 .454-.34.833-.832.833H6.08c-3.063 0-5.559-2.5-5.559-5.568v-3.485a.84.84 0 0 1 .832-.833.84.84 0 0 1 .832.833v3.485a3.892 3.892 0 0 0 3.895 3.9h3.78a.84.84 0 0 1 .833.834z"/></g></g></svg>