<svg xmlns="http://www.w3.org/2000/svg" width="37" height="36" viewBox="0 0 37 36"><g><g><path fill="#fc0" d="M25.6 28.744H11.79a3.845 3.845 0 0 1-3.836-3.832V11.12a3.845 3.845 0 0 1 3.836-3.832H25.6a3.845 3.845 0 0 1 3.837 3.832v13.792a3.845 3.845 0 0 1-3.837 3.832zM11.79 8.82a2.307 2.307 0 0 0-2.302 2.299v13.792a2.307 2.307 0 0 0 2.302 2.3H25.6a2.307 2.307 0 0 0 2.302-2.3V11.12a2.307 2.307 0 0 0-2.302-2.3zm4.603-3.832a.77.77 0 0 1-.767-.766V.775c0-.421.345-.766.767-.766.422 0 .768.345.768.766v3.448a.77.77 0 0 1-.768.766zm4.604 0a.77.77 0 0 1-.767-.766V.775c0-.421.345-.766.767-.766.422 0 .767.345.767.766v3.448a.77.77 0 0 1-.767.766zm-9.207 0a.77.77 0 0 1-.767-.766V.775c0-.421.345-.766.767-.766.422 0 .767.345.767.766v3.448a.77.77 0 0 1-.767.766zm13.81 0a.77.77 0 0 1-.767-.766V.775c0-.421.346-.766.767-.766.423 0 .768.345.768.766v3.448a.77.77 0 0 1-.768.766zm-9.207 31.034a.769.769 0 0 1-.767-.766v-3.448a.77.77 0 0 1 .767-.767.77.77 0 0 1 .768.767v3.448a.769.769 0 0 1-.768.766zm4.604 0a.769.769 0 0 1-.767-.766v-3.448a.77.77 0 0 1 .767-.767.77.77 0 0 1 .767.767v3.448a.769.769 0 0 1-.767.766zm-9.207 0a.769.769 0 0 1-.767-.766v-3.448a.77.77 0 0 1 .767-.767.77.77 0 0 1 .767.767v3.448a.769.769 0 0 1-.767.766zm13.81 0a.769.769 0 0 1-.767-.766v-3.448a.77.77 0 0 1 .767-.767.77.77 0 0 1 .768.767v3.448a.769.769 0 0 1-.768.766zm10.359-19.54h-3.453a.77.77 0 0 1-.767-.766c0-.422.345-.766.767-.766h3.453c.421 0 .767.344.767.766a.77.77 0 0 1-.767.767zm0 4.598h-3.453a.77.77 0 0 1-.767-.766.77.77 0 0 1 .767-.767h3.453a.77.77 0 0 1 .767.767.77.77 0 0 1-.767.766zm0-9.195h-3.453a.769.769 0 0 1-.767-.766.77.77 0 0 1 .767-.767h3.453a.77.77 0 0 1 .767.767.769.769 0 0 1-.767.766zm0 13.793h-3.453a.77.77 0 0 1-.767-.767.77.77 0 0 1 .767-.766h3.453a.77.77 0 0 1 .767.766.77.77 0 0 1-.767.767zM4.884 16.484H1.432a.77.77 0 0 1-.767-.767c0-.422.345-.766.767-.766h3.452c.423 0 .768.344.768.766a.77.77 0 0 1-.768.767zm0 4.597H1.432a.77.77 0 0 1-.767-.766.77.77 0 0 1 .767-.767h3.452a.77.77 0 0 1 .768.767.77.77 0 0 1-.768.766zm0-9.195H1.432a.769.769 0 0 1-.767-.766.77.77 0 0 1 .767-.767h3.452a.77.77 0 0 1 .768.767.769.769 0 0 1-.768.766zm0 13.793H1.432a.77.77 0 0 1-.767-.767.77.77 0 0 1 .767-.766h3.452a.77.77 0 0 1 .768.766.77.77 0 0 1-.768.767z"/></g></g></svg>